<svg xmlns="http://www.w3.org/2000/svg" width="146" height="36" fill="none"><path fill="#fff" d="m145.899 30.784-4.518 2.168V31.63l3-1.396-3-1.409v-1.322l4.518 2.168v1.114ZM134.54 35.05l4.128-10.998h1.187l-4.127 10.998h-1.188Zm-2.34-8.01h1.347l-3.061 7.545c-.164.408-.378.714-.643.918-.266.204-.648.306-1.145.306h-1.066v-1.09h1.494l.576-1.445-2.548-6.234h1.397l1.004 2.646.784 2.168h.073l.784-2.168 1.004-2.646Zm-13.201 6.32v-6.32h1.139v.82h.061c.098-.269.239-.497.423-.684.183-.188.447-.283.79-.283.334 0 .593.092.777.276.184.184.3.435.349.753h.049c.115-.286.274-.529.478-.728.204-.2.498-.3.882-.3.49 0 .83.17 1.022.514.192.342.288.845.288 1.506v4.446h-1.139v-4.274c0-.441-.053-.745-.159-.913-.107-.167-.277-.25-.514-.25a.722.722 0 0 0-.533.214c-.143.142-.215.357-.215.642v4.58h-1.139v-4.273c0-.441-.05-.745-.152-.913-.103-.167-.272-.25-.509-.25a.739.739 0 0 0-.545.214c-.143.142-.214.357-.214.642v4.58h-1.139Zm-5.192-5.45c-.237 0-.455.04-.655.123-.2.081-.371.198-.514.348-.143.152-.256.33-.338.533a1.811 1.811 0 0 0-.122.673v.087h3.172v-.123c0-.498-.141-.896-.422-1.194-.281-.298-.655-.447-1.121-.447Zm.098 5.597c-.481 0-.914-.078-1.298-.233a2.626 2.626 0 0 1-.968-.661 2.906 2.906 0 0 1-.599-1.035 4.155 4.155 0 0 1-.208-1.366c0-.506.07-.963.213-1.372a3.12 3.12 0 0 1 .6-1.046c.258-.29.57-.513.938-.669a3.13 3.13 0 0 1 1.224-.232c.441 0 .842.076 1.2.227.36.151.666.365.919.643s.447.608.582.992c.134.384.202.808.202 1.274v.502h-4.532v.207c0 .495.156.898.466 1.21.31.313.739.469 1.286.469.408 0 .757-.087 1.047-.262a2.05 2.05 0 0 0 .704-.7l.833.738c-.212.368-.537.68-.974.933-.436.254-.982.38-1.635.38Zm-8.36-1.09c.196 0 .38-.025.551-.074.172-.049.323-.122.453-.22.131-.098.235-.218.313-.361a1.06 1.06 0 0 0 .116-.509v-2.106c0-.196-.039-.366-.116-.508a1.103 1.103 0 0 0-.313-.361 1.357 1.357 0 0 0-.453-.221 1.994 1.994 0 0 0-.551-.074c-.506 0-.896.155-1.169.466-.274.31-.411.722-.411 1.236v1.03c0 .514.137.926.411 1.236.273.31.663.466 1.169.466Zm1.433-.135h-.074a2.296 2.296 0 0 1-.747.9c-.31.216-.698.325-1.163.325-.743 0-1.334-.278-1.776-.833-.441-.555-.661-1.38-.661-2.474 0-1.094.22-1.918.661-2.474.442-.555 1.033-.833 1.776-.833.465 0 .853.108 1.163.325.31.216.56.516.747.9h.074v-3.821h1.335v9.063h-1.335v-1.078Zm-9.966.245c.432 0 .788-.097 1.065-.292.278-.195.417-.446.417-.755v-.912h-1.189c-.963 0-1.445.288-1.445.864v.243c0 .284.102.497.307.639.204.142.485.213.845.213Zm2.792.833c-.384 0-.672-.099-.864-.294-.191-.196-.308-.453-.348-.772h-.062a1.629 1.629 0 0 1-.667.895c-.323.212-.733.318-1.231.318-.645 0-1.16-.17-1.543-.508-.384-.339-.576-.806-.576-1.402 0-.613.227-1.08.68-1.403.453-.322 1.149-.483 2.088-.483h1.213v-.49c0-.858-.454-1.287-1.36-1.287-.408 0-.74.08-.992.24a2.09 2.09 0 0 0-.637.63l-.796-.65c.18-.342.481-.638.906-.887.425-.249.972-.374 1.641-.374.8 0 1.43.192 1.887.576.457.384.685.939.685 1.666v3.172h.796v1.053h-.82Zm-10.186.147c-.474 0-.896-.078-1.268-.233a2.59 2.59 0 0 1-.942-.661 2.867 2.867 0 0 1-.588-1.042 4.346 4.346 0 0 1-.203-1.37c0-.507.067-.964.203-1.373.134-.408.33-.755.588-1.04.256-.286.57-.507.942-.663.372-.154.79-.232 1.256-.232.653 0 1.178.137 1.573.412.397.274.693.632.889 1.07l-1.041.564a1.532 1.532 0 0 0-.522-.698c-.232-.172-.532-.258-.9-.258-.506 0-.898.154-1.175.462-.277.308-.417.717-.417 1.226v1.059c0 .5.14.907.417 1.219.277.312.677.468 1.2.468.392 0 .712-.09.962-.27.248-.18.447-.424.593-.734l.98.6a2.592 2.592 0 0 1-.93 1.076c-.417.279-.956.418-1.617.418Zm-18.4-3.837 4.52-2.168v1.322l-3.001 1.397 3 1.408v1.323l-4.518-2.168V29.67Zm9.773 2.857c.433 0 .788-.097 1.065-.292.279-.195.417-.446.417-.755v-.912h-1.188c-.964 0-1.445.288-1.445.864v.243c0 .284.102.497.306.639.204.142.486.213.846.213Zm2.792.833c-.383 0-.671-.099-.863-.294-.192-.196-.308-.453-.35-.772h-.06a1.629 1.629 0 0 1-.667.895c-.324.212-.734.318-1.232.318-.644 0-1.159-.17-1.543-.508-.384-.339-.575-.806-.575-1.402 0-.613.226-1.08.68-1.403.452-.322 1.148-.483 2.088-.483h1.212v-.49c0-.858-.453-1.287-1.36-1.287-.408 0-.739.08-.992.24a2.087 2.087 0 0 0-.636.63l-.796-.65c.18-.342.48-.638.906-.887.424-.249.971-.374 1.64-.374.801 0 1.43.192 1.887.576.457.384.686.939.686 1.666v3.172h.796v1.053h-.821Zm52.011-21.953c.207-1.882 1.442-2.881 3.371-2.931 1.933.05 3.112.989 3.245 2.931h-6.616ZM146 12.8c0-.482-.032-.948-.1-1.393-.522-3.62-3.123-5.892-6.808-5.892-4.136 0-6.905 2.863-6.905 7.285 0 4.422 2.769 7.286 6.905 7.286 2.937 0 5.34-1.368 6.395-3.786l-3.131-1.138c-.498 1.232-1.559 1.807-3.191 1.807-1.985-.05-3.147-1.162-3.34-3.11h10.119c.038-.342.056-.696.056-1.059Zm-15.947-1.527v8.388h-3.556V9.07h-5.811v10.588h-3.556V5.94h7.588a5.335 5.335 0 0 1 5.335 5.334Zm-22.338 5.402c-2.499-.057-3.67-1.323-3.67-3.945 0-2.606 1.157-3.902 3.67-3.96 2.513.058 3.671 1.354 3.671 3.96 0 2.622-1.171 3.888-3.671 3.945Zm-.001-11.16c-4.363 0-7.283 2.863-7.283 7.285 0 4.422 2.92 7.286 7.283 7.286s7.282-2.864 7.282-7.285c0-4.423-2.919-7.286-7.282-7.286Zm-11.82 9.613 3.352 1.22c-1.134 2.345-3.476 3.738-6.519 3.738-4.363 0-7.282-2.864-7.282-7.285 0-4.423 2.919-7.286 7.282-7.286 3.043 0 5.385 1.394 6.52 3.738l-3.291 1.196c-.548-1.086-1.603-1.64-3.226-1.679-2.513.06-3.67 1.356-3.67 3.96 0 2.622 1.17 3.889 3.67 3.944 1.556-.035 2.596-.538 3.164-1.546ZM73.46 11.407c.207-1.882 1.442-2.881 3.371-2.931 1.933.05 3.111.989 3.245 2.931H73.46ZM83.667 12.8c0-.482-.032-.948-.1-1.393-.522-3.62-3.123-5.892-6.808-5.892-4.136 0-6.906 2.863-6.906 7.285 0 4.422 2.77 7.286 6.906 7.286 2.937 0 5.34-1.368 6.395-3.786l-3.132-1.138c-.497 1.232-1.558 1.807-3.19 1.807-1.985-.05-3.147-1.162-3.34-3.11h10.12a9.86 9.86 0 0 0 .055-1.059ZM67.72 11.277v8.388h-3.556V9.075h-5.811v10.588h-3.556V5.943h7.588a5.335 5.335 0 0 1 5.335 5.334ZM48.04 2.134a2.133 2.133 0 1 1 4.267 0 2.133 2.133 0 0 1-4.267 0Zm.356 3.808h3.556v13.723h-3.556V5.942Zm-5.69 7.747a2.842 2.842 0 0 1-2.841 2.842h-4.262V9.074h4.262a2.842 2.842 0 0 1 2.842 2.842v1.773Zm3.534-1.6a6.452 6.452 0 0 0-6.335-6.146l-7.858-.003v18.24h3.556v-4.517h4.302a6.452 6.452 0 0 0 6.336-6.154c.005-.1.021-.383.021-.707 0-.3-.017-.612-.022-.712Zm-21.943-1.801-3.353-6.283a3.56 3.56 0 0 0-3.141-1.885h-3.561V3.9h.001c.657 0 1.26.362 1.57.942l3.351 6.284a3.548 3.548 0 0 1 0 3.351l-3.35 6.284c-.31.58-.914.943-1.57.943h-.002v1.78h3.561a3.56 3.56 0 0 0 3.141-1.886l3.353-6.283a5.35 5.35 0 0 0 0-5.027ZM7.122 2.12h3.56V3.9a1.78 1.78 0 0 0-1.57.942L5.76 11.126a3.548 3.548 0 0 0 0 3.351l3.351 6.284c.31.58.914.943 1.57.943h.002v1.78H7.122a3.56 3.56 0 0 1-3.142-1.886L.628 15.315a5.35 5.35 0 0 1 0-5.027L3.98 4.005A3.56 3.56 0 0 1 7.122 2.12Z"/></svg>