<svg width="474" height="474" viewBox="0 0 474 474" fill="none" xmlns="http://www.w3.org/2000/svg">
<g clip-path="url(#clip0_2732_1738)">
<circle opacity="0.3" cx="145" cy="314" r="32" fill="#FF7472"/>
<circle opacity="0.3" cx="334" cy="312" r="34" fill="#FF7472"/>
<mask id="mask0_2732_1738" style="mask-type:alpha" maskUnits="userSpaceOnUse" x="245" y="221" width="57" height="66">
<path d="M253.758 221.224C263.52 227.857 275.307 231.734 288 231.734C292.019 231.734 295.946 231.344 299.748 230.603C301.026 233.812 301.729 237.312 301.729 240.977V258.389C301.729 273.882 289.17 286.442 273.677 286.442C258.183 286.442 245.623 273.882 245.623 258.389V240.977C245.623 233.272 248.73 226.294 253.758 221.224Z" fill="white"/>
</mask>
<g mask="url(#mask0_2732_1738)">
<rect x="245.623" y="212.923" width="56.1067" height="73.5191" rx="28.0533" fill="white"/>
<path d="M265.61 218.492C249.884 218.492 237.135 231.241 237.135 246.967C237.135 251.521 238.206 255.825 240.107 259.643C241.083 257.871 242.969 256.671 245.135 256.671C248.302 256.671 250.87 259.239 250.87 262.406C250.87 265.134 248.965 267.415 246.412 267.996C251.475 272.621 258.213 275.442 265.61 275.442C281.336 275.442 294.085 262.693 294.085 246.967C294.085 231.241 281.336 218.492 265.61 218.492Z" fill="black"/>
<path opacity="0.3" d="M282.48 256.234C281.746 258.003 280.67 259.61 279.313 260.964C277.956 262.318 276.345 263.392 274.572 264.125C272.8 264.857 270.899 265.234 268.98 265.234" stroke="white" stroke-width="6" stroke-linecap="round"/>
</g>
<path d="M249.503 218.052C257.142 224.267 266.172 228.54 275.822 230.506C285.472 232.472 295.454 232.073 304.916 229.342" stroke="#EFA076" stroke-width="6" stroke-linecap="round"/>
<mask id="mask1_2732_1738" style="mask-type:alpha" maskUnits="userSpaceOnUse" x="165" y="221" width="57" height="66">
<path d="M213.242 221.224C203.48 227.857 191.693 231.734 179 231.734C174.981 231.734 171.054 231.344 167.252 230.603C165.974 233.812 165.271 237.312 165.271 240.977V258.389C165.271 273.882 177.83 286.442 193.323 286.442C208.817 286.442 221.377 273.882 221.377 258.389V240.977C221.377 233.272 218.27 226.294 213.242 221.224Z" fill="white"/>
</mask>
<g mask="url(#mask1_2732_1738)">
<rect width="56.1067" height="73.5191" rx="28.0533" transform="matrix(-1 0 0 1 221.377 212.923)" fill="white"/>
<path d="M201.061 218.492C185.334 218.492 172.585 231.241 172.585 246.967C172.585 251.521 173.657 255.825 175.558 259.643C176.534 257.871 178.419 256.671 180.585 256.671C183.753 256.671 186.32 259.239 186.32 262.406C186.32 265.134 184.415 267.415 181.862 267.996C186.925 272.621 193.663 275.442 201.061 275.442C216.787 275.442 229.535 262.693 229.535 246.967C229.535 231.241 216.787 218.492 201.061 218.492Z" fill="black"/>
<path opacity="0.3" d="M217.929 256.234C217.194 258.003 216.118 259.61 214.761 260.964C213.404 262.318 211.793 263.392 210.021 264.125C208.248 264.857 206.348 265.234 204.429 265.234" stroke="white" stroke-width="6" stroke-linecap="round"/>
</g>
<path d="M215.492 219.615C208.14 225.104 199.645 228.863 190.639 230.614C181.634 232.364 172.349 232.061 163.477 229.726" stroke="#EFA076" stroke-width="6" stroke-linecap="round"/>
<path d="M249.499 309.62C239.036 307.89 228.356 307.924 217.904 309.721" stroke="#EFA076" stroke-width="6" stroke-linecap="round"/>
<path d="M216.067 318.498C217.171 312.796 216.12 306.887 213.118 301.915" stroke="#EFA076" stroke-width="6" stroke-linecap="round"/>
<path d="M251.014 318.498C249.909 312.796 250.96 306.887 253.963 301.915" stroke="#EFA076" stroke-width="6" stroke-linecap="round"/>
</g>
<defs>
<clipPath id="clip0_2732_1738">
<rect width="474" height="474" fill="white"/>
</clipPath>
</defs>
</svg>
