<svg width="474" height="474" viewBox="0 0 474 474" fill="none" xmlns="http://www.w3.org/2000/svg">
<circle opacity="0.3" cx="169.193" cy="278.051" r="26.1933" fill="#FF7472"/>
<circle opacity="0.3" cx="305.051" cy="278.193" r="26.1933" fill="#FF7472"/>
<mask id="mask0_2724_1999" style="mask-type:alpha" maskUnits="userSpaceOnUse" x="166" y="208" width="58" height="75">
<rect x="166.985" y="208.688" width="56.1067" height="73.5191" rx="28.0533" fill="white"/>
</mask>
<g mask="url(#mask0_2724_1999)">
<rect x="166.985" y="208.688" width="56.1067" height="73.5191" rx="28.0533" fill="white"/>
<path d="M203.297 225.258C215.298 225.258 225.027 234.987 225.027 246.988V260.477C225.027 272.478 215.298 282.208 203.297 282.208C191.295 282.208 181.565 272.478 181.565 260.477V246.988C181.565 244.006 182.167 241.164 183.254 238.576C184.382 239.066 185.661 239.346 187.017 239.346C191.565 239.346 195.252 236.232 195.252 232.391C195.252 230.613 194.461 228.992 193.161 227.763C196.187 226.164 199.636 225.258 203.297 225.258Z" fill="black"/>
</g>
<mask id="mask1_2724_1999" style="mask-type:alpha" maskUnits="userSpaceOnUse" x="236" y="208" width="57" height="75">
<rect x="236.623" y="208.688" width="56.1067" height="73.5191" rx="28.0533" fill="white"/>
</mask>
<g mask="url(#mask1_2724_1999)">
<rect x="236.623" y="208.688" width="56.1067" height="73.5191" rx="28.0533" fill="white"/>
<path d="M258.354 225.258C270.356 225.258 280.085 234.987 280.085 246.988V260.477C280.085 272.478 270.356 282.208 258.354 282.208C246.353 282.208 236.623 272.478 236.623 260.477V246.988C236.623 244.006 237.224 241.164 238.312 238.576C239.44 239.066 240.718 239.346 242.074 239.346C246.623 239.346 250.31 236.232 250.31 232.391C250.309 230.613 249.518 228.992 248.219 227.763C251.245 226.164 254.694 225.258 258.354 225.258Z" fill="black"/>
</g>
<g filter="url(#filter0_i_2724_1999)">
<path d="M205.892 312.697C203.052 316.346 203.685 321.685 207.788 323.817C211.198 325.59 214.828 326.933 218.594 327.807C225.087 329.316 231.831 329.394 238.358 328.038C244.885 326.682 251.039 323.923 256.395 319.953C259.5 317.651 262.294 314.973 264.717 311.988C267.63 308.398 266.084 303.249 262.026 301.033C257.968 298.817 252.948 300.431 249.677 303.699C248.665 304.709 247.578 305.647 246.424 306.503C243.018 309.028 239.103 310.783 234.952 311.645C230.801 312.508 226.511 312.458 222.381 311.499C220.981 311.173 219.611 310.746 218.28 310.222C213.978 308.528 208.731 309.048 205.892 312.697Z" fill="#EFA076"/>
</g>
<circle opacity="0.2" cx="229" cy="279" r="5" fill="black"/>
<defs>
<filter id="filter0_i_2724_1999" x="204.15" y="300.011" width="62.0708" height="28.9893" filterUnits="userSpaceOnUse" color-interpolation-filters="sRGB">
<feFlood flood-opacity="0" result="BackgroundImageFix"/>
<feBlend mode="normal" in="SourceGraphic" in2="BackgroundImageFix" result="shape"/>
<feColorMatrix in="SourceAlpha" type="matrix" values="0 0 0 0 0 0 0 0 0 0 0 0 0 0 0 0 0 0 127 0" result="hardAlpha"/>
<feOffset dx="-4" dy="3"/>
<feComposite in2="hardAlpha" operator="arithmetic" k2="-1" k3="1"/>
<feColorMatrix type="matrix" values="0 0 0 0 0 0 0 0 0 0 0 0 0 0 0 0 0 0 0.15 0"/>
<feBlend mode="normal" in2="shape" result="effect1_innerShadow_2724_1999"/>
</filter>
</defs>
</svg>
