<svg width="474" height="474" viewBox="0 0 474 474" fill="none" xmlns="http://www.w3.org/2000/svg">
<circle opacity="0.3" cx="133" cy="282" r="36" fill="#FF7472"/>
<circle opacity="0.3" cx="339" cy="281" r="35" fill="#FF7472"/>
<mask id="mask0_2726_1869" style="mask-type:alpha" maskUnits="userSpaceOnUse" x="157" y="238" width="66" height="32">
<path d="M157.869 248.605C156.687 244.166 159.326 239.555 163.875 238.907C173.877 237.481 184.103 238.233 193.843 241.149C203.584 244.066 212.54 249.058 220.113 255.746C223.557 258.787 223.228 264.09 219.8 267.149C216.372 270.208 211.148 269.848 207.593 266.937C202.152 262.479 195.862 259.122 189.071 257.089C182.28 255.055 175.18 254.402 168.184 255.136C163.614 255.616 159.052 253.045 157.869 248.605Z" fill="#DB935B"/>
</mask>
<g mask="url(#mask0_2726_1869)">
<path d="M157.869 248.605C156.687 244.166 159.326 239.555 163.875 238.907C173.877 237.481 184.103 238.233 193.843 241.149C203.584 244.066 212.54 249.058 220.113 255.746C223.557 258.787 223.228 264.09 219.8 267.149C216.372 270.208 211.148 269.848 207.593 266.937C202.152 262.479 195.862 259.122 189.071 257.089C182.28 255.055 175.18 254.402 168.184 255.136C163.614 255.616 159.052 253.045 157.869 248.605Z" fill="white"/>
<circle cx="210.972" cy="266.163" r="12" transform="rotate(30 210.972 266.163)" fill="black"/>
</g>
<mask id="mask1_2726_1869" style="mask-type:alpha" maskUnits="userSpaceOnUse" x="249" y="239" width="67" height="30">
<path d="M252.243 265.539C248.999 262.286 248.979 256.973 252.595 254.137C260.544 247.902 269.775 243.439 279.669 241.095C289.563 238.75 299.816 238.596 309.717 240.601C314.221 241.513 316.587 246.27 315.148 250.633C313.709 254.996 309.005 257.297 304.471 256.552C297.53 255.412 290.404 255.651 283.506 257.285C276.608 258.92 270.133 261.904 264.441 266.038C260.724 268.738 255.487 268.793 252.243 265.539Z" fill="#DB935B"/>
</mask>
<g mask="url(#mask1_2726_1869)">
<path d="M252.243 265.539C248.999 262.286 248.979 256.973 252.595 254.137C260.544 247.902 269.775 243.439 279.669 241.095C289.563 238.75 299.816 238.596 309.717 240.601C314.221 241.513 316.587 246.27 315.148 250.633C313.709 254.996 309.005 257.297 304.471 256.552C297.53 255.412 290.404 255.651 283.506 257.285C276.608 258.92 270.133 261.904 264.441 266.038C260.724 268.738 255.487 268.793 252.243 265.539Z" fill="white"/>
<circle cx="304" cy="255" r="12" fill="black"/>
</g>
<path d="M304.169 285.848C295.348 294.669 284.876 301.666 273.351 306.44C261.826 311.213 249.474 313.67 236.999 313.67C224.524 313.67 212.172 311.213 200.647 306.44C189.122 301.666 178.65 294.669 169.829 285.848" stroke="#EFA076" stroke-width="6" stroke-linecap="round"/>
<path d="M165.797 268.918C167.762 272.321 169.037 276.079 169.55 279.975C170.063 283.871 169.804 287.831 168.787 291.627C167.769 295.423 166.015 298.981 163.622 302.099C161.23 305.217 158.247 307.833 154.843 309.798" stroke="#EFA076" stroke-width="6" stroke-linecap="round"/>
<path d="M307.964 268.918C305.999 272.321 304.723 276.079 304.21 279.975C303.697 283.871 303.957 287.831 304.974 291.627C305.991 295.423 307.746 298.981 310.139 302.099C312.531 305.217 315.514 307.833 318.918 309.798" stroke="#EFA076" stroke-width="6" stroke-linecap="round"/>
<path d="M284.844 215.963C281.44 213.998 277.683 212.722 273.787 212.209C269.89 211.696 265.931 211.956 262.135 212.973C258.339 213.99 254.78 215.745 251.662 218.138C248.544 220.53 245.928 223.513 243.963 226.917" stroke="#EFA076" stroke-width="6" stroke-linecap="round"/>
<path d="M155 238.5C162.667 237.167 182.4 236.2 200 243C209.07 246.504 216.582 252.284 222.235 257.998C222.875 258.645 224 258.199 224 257.29V241" stroke="#EFA076" stroke-width="6" stroke-linecap="round"/>
<circle opacity="0.2" cx="229" cy="279" r="5" fill="black"/>
</svg>
