<svg width="474" height="474" viewBox="0 0 474 474" fill="none" xmlns="http://www.w3.org/2000/svg">
<mask id="mask0_2726_1930" style="mask-type:alpha" maskUnits="userSpaceOnUse" x="157" y="238" width="66" height="32">
<path d="M157.869 248.605C156.686 244.166 159.326 239.555 163.874 238.907C173.876 237.481 184.102 238.233 193.843 241.149C203.584 244.066 212.54 249.058 220.112 255.746C223.556 258.787 223.227 264.09 219.799 267.149C216.371 270.208 211.147 269.848 207.593 266.937C202.152 262.479 195.861 259.122 189.07 257.089C182.279 255.055 175.179 254.402 168.183 255.136C163.614 255.616 159.051 253.045 157.869 248.605Z" fill="#DB935B"/>
</mask>
<g mask="url(#mask0_2726_1930)">
<path d="M157.869 248.605C156.686 244.166 159.326 239.555 163.874 238.907C173.876 237.481 184.102 238.233 193.843 241.149C203.584 244.066 212.54 249.058 220.112 255.746C223.556 258.787 223.227 264.09 219.799 267.149C216.371 270.208 211.147 269.848 207.593 266.937C202.152 262.479 195.861 259.122 189.07 257.089C182.279 255.055 175.179 254.402 168.183 255.136C163.614 255.616 159.051 253.045 157.869 248.605Z" fill="white"/>
<circle cx="212.38" cy="260.389" r="12" transform="rotate(30 212.38 260.389)" fill="black"/>
</g>
<mask id="mask1_2726_1930" style="mask-type:alpha" maskUnits="userSpaceOnUse" x="249" y="239" width="67" height="30">
<path d="M252.243 265.539C248.999 262.286 248.979 256.973 252.595 254.137C260.544 247.902 269.775 243.439 279.669 241.095C289.563 238.75 299.816 238.596 309.717 240.601C314.221 241.513 316.587 246.27 315.148 250.633C313.709 254.996 309.005 257.297 304.471 256.552C297.53 255.412 290.404 255.651 283.506 257.285C276.608 258.92 270.133 261.904 264.441 266.038C260.724 268.738 255.487 268.793 252.243 265.539Z" fill="#DB935B"/>
</mask>
<g mask="url(#mask1_2726_1930)">
<path d="M252.243 265.539C248.999 262.286 248.979 256.973 252.595 254.137C260.544 247.902 269.775 243.439 279.669 241.095C289.563 238.75 299.816 238.596 309.717 240.601C314.221 241.513 316.587 246.27 315.148 250.633C313.709 254.996 309.005 257.297 304.471 256.552C297.53 255.412 290.404 255.651 283.506 257.285C276.608 258.92 270.133 261.904 264.441 266.038C260.724 268.738 255.487 268.793 252.243 265.539Z" fill="white"/>
<circle cx="262" cy="259" r="12" fill="black"/>
</g>
<path d="M155 238.5C162.667 237.167 182.4 236.2 200 243C209.07 246.504 216.582 252.284 222.235 257.998C222.875 258.645 224 258.199 224 257.29V241" stroke="#EFA076" stroke-width="6" stroke-linecap="round"/>
<path d="M316 238.5C308.333 237.167 288.6 236.2 271 243C261.93 246.504 254.418 252.284 248.765 257.998C248.125 258.645 247 258.199 247 257.29V241" stroke="#EFA076" stroke-width="6" stroke-linecap="round"/>
<g filter="url(#filter0_i_2726_1930)">
<path d="M227.847 321.892C223.388 319.216 221.888 313.36 225.306 309.441C228.047 306.298 231.148 303.488 234.544 301.067C238.779 298.049 244.46 300.115 246.687 304.815C248.914 309.514 246.788 315.049 242.863 318.461C242.503 318.774 242.149 319.095 241.802 319.423C238.022 322.995 232.305 324.569 227.847 321.892Z" fill="#EFA076"/>
</g>
<circle opacity="0.2" cx="237" cy="279" r="5" fill="black"/>
<defs>
<filter id="filter0_i_2726_1930" x="223.432" y="299.651" width="24.1578" height="23.5859" filterUnits="userSpaceOnUse" color-interpolation-filters="sRGB">
<feFlood flood-opacity="0" result="BackgroundImageFix"/>
<feBlend mode="normal" in="SourceGraphic" in2="BackgroundImageFix" result="shape"/>
<feColorMatrix in="SourceAlpha" type="matrix" values="0 0 0 0 0 0 0 0 0 0 0 0 0 0 0 0 0 0 127 0" result="hardAlpha"/>
<feOffset dx="-4" dy="3"/>
<feComposite in2="hardAlpha" operator="arithmetic" k2="-1" k3="1"/>
<feColorMatrix type="matrix" values="0 0 0 0 0.930198 0 0 0 0 0.537217 0 0 0 0 0.328291 0 0 0 1 0"/>
<feBlend mode="normal" in2="shape" result="effect1_innerShadow_2726_1930"/>
</filter>
</defs>
</svg>
