<svg width="474" height="474" viewBox="0 0 474 474" fill="none" xmlns="http://www.w3.org/2000/svg">
<g clip-path="url(#clip0_2726_2025)">
<circle opacity="0.3" cx="145" cy="310" r="32" fill="#FF7472"/>
<circle opacity="0.3" cx="334" cy="310" r="34" fill="#FF7472"/>
<mask id="mask0_2726_2025" style="mask-type:alpha" maskUnits="userSpaceOnUse" x="245" y="219" width="57" height="68">
<path d="M291.733 219.275C297.845 224.421 301.729 232.127 301.729 240.742V258.154C301.729 273.648 289.17 286.208 273.677 286.208C258.183 286.208 245.623 273.648 245.623 258.154V248.202L291.733 219.275Z" fill="white"/>
</mask>
<g mask="url(#mask0_2726_2025)">
<rect x="245.623" y="212.688" width="56.1067" height="73.5191" rx="28.0533" fill="white"/>
<path d="M264.354 218.258C253.559 218.258 244.605 226.128 242.912 236.443C247.332 236.59 250.87 240.216 250.87 244.671C250.87 249.219 247.182 252.906 242.634 252.906C242.63 252.906 242.627 252.905 242.623 252.905V253.477C242.623 265.478 252.352 275.208 264.354 275.208C276.355 275.208 286.085 265.478 286.085 253.477V239.988C286.085 227.987 276.355 218.258 264.354 218.258Z" fill="black"/>
</g>
<path d="M294 218L245.072 249.051C243.74 249.896 242 248.939 242 247.362V237.5" stroke="#EFA076" stroke-width="6" stroke-linecap="round" stroke-linejoin="round"/>
<mask id="mask1_2726_2025" style="mask-type:alpha" maskUnits="userSpaceOnUse" x="164" y="219" width="58" height="68">
<path d="M174.995 219.275C168.884 224.421 164.999 232.127 164.999 240.742V258.154C164.999 273.648 177.559 286.208 193.052 286.208C208.545 286.208 221.105 273.648 221.105 258.154V248.202L174.995 219.275Z" fill="white"/>
</mask>
<g mask="url(#mask1_2726_2025)">
<rect width="56.1067" height="73.5191" rx="28.0533" transform="matrix(-1 0 0 1 221.105 212.688)" fill="white"/>
<path d="M202.374 218.258C192.275 218.258 183.785 225.147 181.348 234.482C183.912 234.821 185.89 237.015 185.891 239.671C185.891 242.562 183.546 244.906 180.654 244.906C180.651 244.906 180.647 244.905 180.644 244.905V253.477C180.644 265.478 190.373 275.208 202.374 275.208C214.376 275.208 224.105 265.478 224.105 253.477V239.988C224.105 227.987 214.376 218.258 202.374 218.258Z" fill="black"/>
</g>
<path d="M173 218L221.928 249.051C223.26 249.896 225 248.939 225 247.362V237.5" stroke="#EFA076" stroke-width="6" stroke-linecap="round" stroke-linejoin="round"/>
<path d="M249.499 309.62C239.036 307.89 228.356 307.924 217.904 309.721" stroke="#EFA076" stroke-width="6" stroke-linecap="round"/>
<path d="M216.067 318.498C217.171 312.796 216.12 306.887 213.118 301.915" stroke="#EFA076" stroke-width="6" stroke-linecap="round"/>
<path d="M251.014 318.498C249.909 312.796 250.96 306.887 253.963 301.915" stroke="#EFA076" stroke-width="6" stroke-linecap="round"/>
<circle opacity="0.2" cx="237" cy="279" r="5" fill="black"/>
</g>
<defs>
<clipPath id="clip0_2726_2025">
<rect width="474" height="474" fill="white"/>
</clipPath>
</defs>
</svg>
